<?xml version="1.0" encoding="utf-8"?>
<!-- Generator: Adobe Illustrator 22.0.0, SVG Export Plug-In . SVG Version: 6.00 Build 0)  -->
<svg version="1.1" id="Capa_1" xmlns="http://www.w3.org/2000/svg" xmlns:xlink="http://www.w3.org/1999/xlink" x="0px" y="0px"
	 viewBox="0 0 94 94" style="enable-background:new 0 0 94 94;" xml:space="preserve">
<style type="text/css">
	.st0{fill:#2F3740;}
	.st1{fill:#FC5C05;}
	.st2{fill:#FFFFFF;}
	.st3{fill:none;stroke:#FC5C05;stroke-width:0.5;stroke-miterlimit:10;}
</style>
<rect class="st0" width="94" height="94"/>
<path class="st1" d="M33.2,45.8l14.4,14.1L74,34.1L59.6,20L33.2,45.8z M90.7,26.5l-6.1-6c-1.2,0.6-2.5,1-3.9,1c-4.5,0-8.2-3.6-8.2-8
	c0-1.4,0.4-2.7,1-3.8l-6.1-6c-1.6-1.6-4.2-1.6-5.8,0L16.9,47.3c-1.6,1.6-1.6,4.1,0,5.7l6.1,6c1.2-0.6,2.5-1,3.9-1
	c4.5,0,8.2,3.6,8.2,8c0,1.4-0.4,2.7-1,3.8l6.1,6c1.6,1.6,4.2,1.6,5.8,0l44.6-43.7C92.3,30.6,92.3,28,90.7,26.5z M47.6,66.4l-21-20.5
	l33-32.3l21,20.5L47.6,66.4z"/>
<polygon class="st1" points="83.1,33.5 48.4,68.4 25.9,45.7 60.6,10.8 "/>
<g>
	<g>
		<path class="st2" d="M28,65.6c-9.1-8.8-7.3-21.3,1.2-30.1c4.6-4.8,9.6-6.6,13.6-7l0.2,7.8c-2.8,0.4-5.5,1.3-8.2,4.1
			c-4.9,5.1-5.1,11.9,0.4,17.3c5.6,5.5,11.9,5.6,17.8-0.7c1.3-1.3,2.3-3,2.6-4.3l-4.7-4.6l-5.3,5.5l-5-4.9l11.7-12.1l12.6,12.3
			c-0.3,4.1-2.7,9.5-7.2,14.2C48.8,72.2,37.2,74.6,28,65.6z"/>
	</g>
</g>
<path class="st0" d="M22.9,59.3c0,0,3.2-3.7,9.5,0.3c0,0,4.4,4,1.8,10.2S22.9,59.3,22.9,59.3z"/>
<path class="st3" d="M33.2,45.8l14.4,14.1 M90.7,26.5l-6.1-6c-1.2,0.6-2.5,1-3.9,1c-4.5,0-8.2-3.6-8.2-8c0-1.4,0.4-2.7,1-3.8l-6.1-6
	c-1.6-1.6-4.2-1.6-5.8,0L16.9,47.3c-1.6,1.6-1.6,4.1,0,5.7l6.1,6c1.2-0.6,2.5-1,3.9-1c4.5,0,8.2,3.6,8.2,8c0,1.4-0.4,2.7-1,3.8
	l6.1,6c1.6,1.6,4.2,1.6,5.8,0l44.6-43.7C92.3,30.6,92.3,28,90.7,26.5z M80.5,34.1"/>
</svg>
